<?xml version="1.0" encoding="UTF-8"?>
<!DOCTYPE svg PUBLIC "-//W3C//DTD SVG 1.1//EN" "http://www.w3.org/Graphics/SVG/1.1/DTD/svg11.dtd">
<svg xmlns="http://www.w3.org/2000/svg" version="1.1" viewBox="140 425 740 235" style="shape-rendering:geometricPrecision; text-rendering:geometricPrecision; image-rendering:optimizeQuality; fill-rule:evenodd; clip-rule:evenodd" xmlns:xlink="http://www.w3.org/1999/xlink">
<g><path style="opacity:1" fill="#ed9794" d="M 405.5,440.5 C 400.809,442.591 395.809,443.924 390.5,444.5C 395.174,442.413 400.174,441.079 405.5,440.5 Z"/></g>
<g><path style="opacity:1" fill="#cb5655" d="M 420.5,444.5 C 419.833,445.5 419.167,446.5 418.5,447.5C 418.768,445.901 418.434,444.568 417.5,443.5C 419.853,439.188 420.853,439.522 420.5,444.5 Z"/></g>
<g><path style="opacity:1" fill="#ec817e" d="M 390.5,444.5 C 389.848,445.725 388.681,446.392 387,446.5C 384.502,446.917 382.002,447.251 379.5,447.5C 382.854,445.742 386.521,444.742 390.5,444.5 Z"/></g>
<g><path style="opacity:1" fill="#f25951" d="M 409.5,444.5 C 402.938,448.39 397.271,453.39 392.5,459.5C 392.167,459.5 391.833,459.5 391.5,459.5C 391.579,458.07 391.246,456.736 390.5,455.5C 388.167,453.833 386.167,451.833 384.5,449.5C 381.894,448.348 379.227,448.182 376.5,449C 374.664,450.419 372.664,451.586 370.5,452.5C 369.374,453.808 369.374,455.142 370.5,456.5C 368.534,455.559 366.534,454.559 364.5,453.5C 363.479,452.998 363.312,452.332 364,451.5C 369.059,449.722 374.226,448.389 379.5,447.5C 382.002,447.251 384.502,446.917 387,446.5C 388.681,446.392 389.848,445.725 390.5,444.5C 395.809,443.924 400.809,442.591 405.5,440.5C 414.855,436.746 416.188,438.08 409.5,444.5 Z"/></g>
<g><path style="opacity:1" fill="#e67c7d" d="M 305.5,446.5 C 305.027,447.906 304.027,448.573 302.5,448.5C 302.973,447.094 303.973,446.427 305.5,446.5 Z"/></g>
<g><path style="opacity:1" fill="#f86f69" d="M 316.5,440.5 C 322.805,444.656 329.138,448.823 335.5,453C 343.339,456.594 351.005,460.094 358.5,463.5C 354.089,464.647 353.755,466.147 357.5,468C 356.5,468.333 355.5,468.667 354.5,469C 354.404,470.373 354.57,471.873 355,473.5C 353.301,472.594 351.467,472.261 349.5,472.5C 349.167,472.5 348.833,472.5 348.5,472.5C 341.343,468.897 334.01,465.397 326.5,462C 323.309,459.574 319.975,457.407 316.5,455.5C 316.5,450.5 316.5,445.5 316.5,440.5 Z"/></g>
<g><path style="opacity:1" fill="#eec5c3" d="M 420.5,444.5 C 420.046,450.755 419.046,456.922 417.5,463C 417.164,464.03 416.497,464.53 415.5,464.5C 416.66,458.861 417.66,453.195 418.5,447.5C 419.167,446.5 419.833,445.5 420.5,444.5 Z"/></g>
<g><path style="opacity:1" fill="#f74f4a" d="M 391.5,459.5 C 388.833,461.5 386.5,463.833 384.5,466.5C 383.5,467.167 382.5,467.833 381.5,468.5C 380.5,468.5 379.5,468.5 378.5,468.5C 378.33,467.178 378.663,466.011 379.5,465C 378.251,463.176 377.085,463.343 376,465.5C 376.471,463.384 375.971,461.384 374.5,459.5C 373.205,458.512 371.872,457.512 370.5,456.5C 369.374,455.142 369.374,453.808 370.5,452.5C 372.664,451.586 374.664,450.419 376.5,449C 379.227,448.182 381.894,448.348 384.5,449.5C 386.167,451.833 388.167,453.833 390.5,455.5C 391.246,456.736 391.579,458.07 391.5,459.5 Z"/></g>
<g><path style="opacity:1" fill="#e96763" d="M 286.5,457.5 C 284.824,459.834 282.491,460.834 279.5,460.5C 281.509,458.935 283.843,457.935 286.5,457.5 Z"/></g>
<g><path style="opacity:1" fill="#e4605f" d="M 279.5,460.5 C 277.824,462.834 275.491,463.834 272.5,463.5C 274.509,461.935 276.843,460.935 279.5,460.5 Z"/></g>
<g><path style="opacity:1" fill="#e5b9bc" d="M 391.5,459.5 C 391.833,459.5 392.167,459.5 392.5,459.5C 390.431,462.573 387.764,464.906 384.5,466.5C 386.5,463.833 388.833,461.5 391.5,459.5 Z"/></g>
<g><path style="opacity:1" fill="#f8635b" d="M 374.5,459.5 C 375.971,461.384 376.471,463.384 376,465.5C 377.085,463.343 378.251,463.176 379.5,465C 378.663,466.011 378.33,467.178 378.5,468.5C 379.5,468.5 380.5,468.5 381.5,468.5C 377.193,472.472 372.859,476.472 368.5,480.5C 367.942,479.21 366.942,478.377 365.5,478C 359.845,476.592 354.511,474.758 349.5,472.5C 351.467,472.261 353.301,472.594 355,473.5C 354.57,471.873 354.404,470.373 354.5,469C 355.5,468.667 356.5,468.333 357.5,468C 353.755,466.147 354.089,464.647 358.5,463.5C 362.445,464.656 366.445,465.156 370.5,465C 372.464,463.549 373.797,461.716 374.5,459.5 Z"/></g>
<g><path style="opacity:1" fill="#e36b67" d="M 263.5,466.5 C 262.848,467.725 261.681,468.392 260,468.5C 257.502,468.917 255.002,469.251 252.5,469.5C 255.854,467.742 259.521,466.742 263.5,466.5 Z"/></g>
<g><path style="opacity:1" fill="#f6f3f2" d="M 409.5,444.5 C 410.635,446.213 412.302,446.88 414.5,446.5C 409.095,452.565 404.095,458.898 399.5,465.5C 393.422,471.242 388.088,477.575 383.5,484.5C 366.155,503.846 349.155,523.513 332.5,543.5C 328.155,547.847 324.155,552.514 320.5,557.5C 318.413,558.585 317.08,560.251 316.5,562.5C 314.413,563.585 313.08,565.251 312.5,567.5C 311.833,567.5 311.5,567.833 311.5,568.5C 309.833,569.5 308.5,570.833 307.5,572.5C 305.218,575.122 302.885,577.788 300.5,580.5C 299.635,581.583 298.635,581.749 297.5,581C 283.667,566.5 269.833,552 256,537.5C 255.333,536.833 255.333,536.167 256,535.5C 260.037,531.631 263.87,527.631 267.5,523.5C 268.838,521.887 270.505,521.387 272.5,522C 280.5,530.667 288.5,539.333 296.5,548C 297.5,548.667 298.5,548.667 299.5,548C 303.037,544.631 306.371,541.131 309.5,537.5C 311.167,536.5 312.5,535.167 313.5,533.5C 319.463,529.205 324.796,524.205 329.5,518.5C 342.527,505.806 355.527,493.139 368.5,480.5C 372.859,476.472 377.193,472.472 381.5,468.5C 382.5,467.833 383.5,467.167 384.5,466.5C 387.764,464.906 390.431,462.573 392.5,459.5C 397.271,453.39 402.938,448.39 409.5,444.5 Z"/></g>
<g><path style="opacity:1" fill="#e4acab" d="M 250.5,469.5 C 247.833,470.167 245.167,470.833 242.5,471.5C 241.5,471.5 240.5,471.5 239.5,471.5C 237.5,471.5 235.5,471.5 233.5,471.5C 238.916,469.883 244.583,469.216 250.5,469.5 Z"/></g>
<g><path style="opacity:1" fill="#f34b46" d="M 316.5,455.5 C 319.975,457.407 323.309,459.574 326.5,462C 334.01,465.397 341.343,468.897 348.5,472.5C 346.856,472.286 345.356,472.62 344,473.5C 341.6,471.927 339.1,470.427 336.5,469C 335.167,468.333 333.833,468.333 332.5,469C 335.167,470.667 337.833,472.333 340.5,474C 337.517,476.481 336.851,479.148 338.5,482C 337.256,482.456 336.423,481.956 336,480.5C 334.782,483.558 332.949,486.224 330.5,488.5C 331.911,490.017 331.744,491.351 330,492.5C 328.623,488.735 327.623,489.068 327,493.5C 325.232,491.608 323.232,489.941 321,488.5C 320.055,488.905 319.388,489.572 319,490.5C 318.292,489.619 317.458,488.953 316.5,488.5C 316.5,477.5 316.5,466.5 316.5,455.5 Z"/></g>
<g><path style="opacity:1" fill="#f3443e" d="M 348.5,472.5 C 348.833,472.5 349.167,472.5 349.5,472.5C 354.511,474.758 359.845,476.592 365.5,478C 366.942,478.377 367.942,479.21 368.5,480.5C 355.527,493.139 342.527,505.806 329.5,518.5C 329.773,516.549 329.107,515.049 327.5,514C 329.316,512.059 331.316,511.392 333.5,512C 334.38,510.644 334.714,509.144 334.5,507.5C 336.827,507.753 338.827,507.086 340.5,505.5C 340.154,504.304 339.654,504.304 339,505.5C 337.632,504.007 337.465,502.507 338.5,501C 337,500.167 335.833,499 335,497.5C 334.316,501.093 332.816,501.427 330.5,498.5C 329.522,498.977 328.689,499.643 328,500.5C 327,499.167 326,497.833 325,496.5C 324.692,497.308 324.192,497.975 323.5,498.5C 322.571,497.311 322.238,495.978 322.5,494.5C 320.549,494.227 319.049,494.893 318,496.5C 316.625,494.063 316.125,491.397 316.5,488.5C 317.458,488.953 318.292,489.619 319,490.5C 319.388,489.572 320.055,488.905 321,488.5C 323.232,489.941 325.232,491.608 327,493.5C 327.623,489.068 328.623,488.735 330,492.5C 331.744,491.351 331.911,490.017 330.5,488.5C 332.949,486.224 334.782,483.558 336,480.5C 336.423,481.956 337.256,482.456 338.5,482C 336.851,479.148 337.517,476.481 340.5,474C 337.833,472.333 335.167,470.667 332.5,469C 333.833,468.333 335.167,468.333 336.5,469C 339.1,470.427 341.6,471.927 344,473.5C 345.356,472.62 346.856,472.286 348.5,472.5 Z"/></g>
<g><path style="opacity:1" fill="#cd3229" d="M 399.5,465.5 C 398.93,469.912 396.597,473.078 392.5,475C 394.829,476.995 394.162,478.162 390.5,478.5C 388.147,480.523 385.814,482.523 383.5,484.5C 388.088,477.575 393.422,471.242 399.5,465.5 Z"/></g>
<g><path style="opacity:1" fill="#e5b6b0" d="M 414.5,469.5 C 414.717,475.953 413.384,481.953 410.5,487.5C 411.564,481.325 412.897,475.325 414.5,469.5 Z"/></g>
<g><path style="opacity:1" fill="#e31c15" d="M 313.5,532.5 C 312.5,532.5 311.5,532.5 310.5,532.5C 309.956,530.42 309.122,528.42 308,526.5C 307.667,527.167 307.333,527.833 307,528.5C 306.333,527.167 305.667,527.167 305,528.5C 304.653,524.884 303.486,524.217 301.5,526.5C 300.833,524.833 300.167,523.167 299.5,521.5C 297.492,523.762 297.159,523.262 298.5,520C 297.333,519.5 296.5,518.667 296,517.5C 295.667,518.5 295.333,519.5 295,520.5C 294.173,519.338 293.34,518.171 292.5,517C 293.423,513.744 292.756,513.244 290.5,515.5C 289.269,514.349 289.269,513.183 290.5,512C 289.551,511.383 288.718,511.549 288,512.5C 284.932,507.685 281.099,502.852 276.5,498C 274.754,497.529 273.087,496.862 271.5,496C 271.957,495.586 272.291,495.086 272.5,494.5C 268.512,492.004 264.678,489.337 261,486.5C 260.208,484.413 259.041,482.579 257.5,481C 261.688,480.566 265.355,479.066 268.5,476.5C 284.548,472.312 299.548,465.645 313.5,456.5C 314.086,456.709 314.586,457.043 315,457.5C 315.19,477.524 315.69,497.524 316.5,517.5C 315.847,522.603 314.847,527.603 313.5,532.5 Z"/></g>
<g><path style="opacity:1" fill="#e35353" d="M 505.5,481.5 C 505.5,481.833 505.5,482.167 505.5,482.5C 500.737,482.226 496.07,482.559 491.5,483.5C 495.715,481.564 500.381,480.897 505.5,481.5 Z"/></g>
<g><path style="opacity:1" fill="#e86765" d="M 816.5,481.5 C 814.898,483.074 812.898,483.741 810.5,483.5C 812.102,481.926 814.102,481.259 816.5,481.5 Z"/></g>
<g><path style="opacity:1" fill="#ea1910" d="M 725.5,482.5 C 730.167,482.5 734.833,482.5 739.5,482.5C 739.172,494.678 739.505,506.678 740.5,518.5C 740.328,519.492 740.662,520.158 741.5,520.5C 743.472,528.996 748.805,532.162 757.5,530C 760.987,529.011 763.32,526.845 764.5,523.5C 765.268,522.737 765.768,521.737 766,520.5C 766.5,507.838 766.667,495.171 766.5,482.5C 771.167,482.5 775.833,482.5 780.5,482.5C 780.5,495.167 780.5,507.833 780.5,520.5C 780.5,522.167 780.5,523.833 780.5,525.5C 778.16,530.836 774.826,535.503 770.5,539.5C 766.643,541.096 762.643,542.096 758.5,542.5C 752.323,542.619 746.323,541.619 740.5,539.5C 735.832,534.499 731.166,529.499 726.5,524.5C 725.535,510.549 725.201,496.549 725.5,482.5 Z"/></g>
<g><path style="opacity:1" fill="#f0160d" d="M 615.5,500.5 C 615.738,498.596 616.738,497.262 618.5,496.5C 619.404,495.791 619.737,494.791 619.5,493.5C 610.342,492.67 601.009,492.17 591.5,492C 590.556,489.281 590.223,486.448 590.5,483.5C 606.833,483.5 623.167,483.5 639.5,483.5C 639.5,485.833 639.5,488.167 639.5,490.5C 638.167,490.5 636.833,490.5 635.5,490.5C 635.649,489.448 635.483,488.448 635,487.5C 633.992,487.982 632.825,488.148 631.5,488C 632.601,490.292 631.768,491.792 629,492.5C 628.667,492.167 628.333,491.833 628,491.5C 626.2,494.583 623.867,497.249 621,499.5C 621,500.833 621,502.167 621,503.5C 620.333,502.833 619.667,502.167 619,501.5C 617.125,508 615.958,507.666 615.5,500.5 Z"/></g>
<g><path style="opacity:1" fill="#e26865" d="M 725.5,482.5 C 725.5,482.167 725.5,481.833 725.5,481.5C 730.5,481.5 735.5,481.5 740.5,481.5C 740.5,493.833 740.5,506.167 740.5,518.5C 739.505,506.678 739.172,494.678 739.5,482.5C 734.833,482.5 730.167,482.5 725.5,482.5 Z"/></g>
<g><path style="opacity:1" fill="#e04c47" d="M 653.5,482.5 C 658.305,481.513 663.305,481.179 668.5,481.5C 668.5,489.167 668.5,496.833 668.5,504.5C 667.509,497.687 667.175,490.687 667.5,483.5C 663.03,482.514 658.363,482.181 653.5,482.5 Z"/></g>
<g><path style="opacity:1" fill="#cf4948" d="M 233.5,471.5 C 235.5,471.5 237.5,471.5 239.5,471.5C 236.713,472.477 233.713,472.81 230.5,472.5C 230.5,480.5 230.5,488.5 230.5,496.5C 230.5,496.833 230.5,497.167 230.5,497.5C 229.507,489.016 229.174,480.349 229.5,471.5C 230.833,471.5 232.167,471.5 233.5,471.5 Z"/></g>
<g><path style="opacity:1" fill="#e67d78" d="M 577.5,522.5 C 577.5,509.167 577.5,495.833 577.5,482.5C 572.833,482.5 568.167,482.5 563.5,482.5C 563.829,495.344 563.495,508.011 562.5,520.5C 562.5,507.5 562.5,494.5 562.5,481.5C 567.833,481.5 573.167,481.5 578.5,481.5C 578.829,495.344 578.496,509.01 577.5,522.5 Z"/></g>
<g><path style="opacity:1" fill="#eb1b12" d="M 843.5,539.5 C 840.603,540.129 837.936,541.129 835.5,542.5C 829.682,543.651 824.015,543.651 818.5,542.5C 816.485,541.076 814.152,540.41 811.5,540.5C 801.94,536.603 795.94,529.603 793.5,519.5C 793.36,513.464 793.693,507.464 794.5,501.5C 794.5,500.833 794.5,500.167 794.5,499.5C 795.906,499.027 796.573,498.027 796.5,496.5C 799.906,490.759 804.572,486.426 810.5,483.5C 812.898,483.741 814.898,483.074 816.5,481.5C 833.996,477.502 847.496,483.169 857,498.5C 862.772,515.684 858.272,529.351 843.5,539.5 Z"/></g>
<g><path style="opacity:1" fill="#ea2015" d="M 640.5,491.5 C 638.529,493.808 636.529,496.142 634.5,498.5C 633.094,498.973 632.427,499.973 632.5,501.5C 626.13,507.868 620.13,514.535 614.5,521.5C 614.372,517.796 616.038,515.296 619.5,514C 617.667,512.212 615.667,512.046 613.5,513.5C 612.614,512.675 612.281,511.675 612.5,510.5C 609.491,510.723 606.824,511.723 604.5,513.5C 607.465,508.57 611.131,504.237 615.5,500.5C 615.958,507.666 617.125,508 619,501.5C 619.667,502.167 620.333,502.833 621,503.5C 621,502.167 621,500.833 621,499.5C 623.867,497.249 626.2,494.583 628,491.5C 628.333,491.833 628.667,492.167 629,492.5C 631.768,491.792 632.601,490.292 631.5,488C 632.825,488.148 633.992,487.982 635,487.5C 635.483,488.448 635.649,489.448 635.5,490.5C 636.833,490.5 638.167,490.5 639.5,490.5C 639.5,488.167 639.5,485.833 639.5,483.5C 623.167,483.5 606.833,483.5 590.5,483.5C 590.223,486.448 590.556,489.281 591.5,492C 601.009,492.17 610.342,492.67 619.5,493.5C 609.5,493.5 599.5,493.5 589.5,493.5C 589.5,489.833 589.5,486.167 589.5,482.5C 606.5,482.5 623.5,482.5 640.5,482.5C 640.5,485.5 640.5,488.5 640.5,491.5 Z"/></g>
<g><path style="opacity:1" fill="#db1b15" d="M 268.5,476.5 C 265.355,479.066 261.688,480.566 257.5,481C 259.041,482.579 260.208,484.413 261,486.5C 264.678,489.337 268.512,492.004 272.5,494.5C 272.291,495.086 271.957,495.586 271.5,496C 273.087,496.862 274.754,497.529 276.5,498C 281.099,502.852 284.932,507.685 288,512.5C 288.718,511.549 289.551,511.383 290.5,512C 289.269,513.183 289.269,514.349 290.5,515.5C 292.756,513.244 293.423,513.744 292.5,517C 293.34,518.171 294.173,519.338 295,520.5C 295.333,519.5 295.667,518.5 296,517.5C 296.5,518.667 297.333,519.5 298.5,520C 297.159,523.262 297.492,523.762 299.5,521.5C 300.167,523.167 300.833,524.833 301.5,526.5C 303.486,524.217 304.653,524.884 305,528.5C 305.667,527.167 306.333,527.167 307,528.5C 307.333,527.833 307.667,527.167 308,526.5C 309.122,528.42 309.956,530.42 310.5,532.5C 311.5,532.5 312.5,532.5 313.5,532.5C 313.5,532.833 313.5,533.167 313.5,533.5C 312.5,535.167 311.167,536.5 309.5,537.5C 307.35,537.905 305.35,538.405 303.5,539C 304.743,537.846 305.743,536.512 306.5,535C 305.027,534.29 304.36,533.124 304.5,531.5C 300.04,531.689 297.373,529.689 296.5,525.5C 294.567,525.271 292.9,524.438 291.5,523C 289.009,519.51 286.175,516.343 283,513.5C 282.086,514.654 281.253,514.487 280.5,513C 281.28,511.927 281.113,510.76 280,509.5C 278.226,507.06 275.892,505.394 273,504.5C 272.973,500.614 271.473,497.448 268.5,495C 263.456,492.336 258.456,490.336 253.5,489C 253.833,488.667 254.167,488.333 254.5,488C 252.913,487.138 251.246,486.471 249.5,486C 251.918,483.69 251.252,483.024 247.5,484C 247.944,485.533 248.277,487.033 248.5,488.5C 247.5,489.833 246.5,491.167 245.5,492.5C 245.709,493.086 246.043,493.586 246.5,494C 249.623,494.206 252.623,494.873 255.5,496C 247.173,496.5 238.84,496.666 230.5,496.5C 230.5,488.5 230.5,480.5 230.5,472.5C 233.713,472.81 236.713,472.477 239.5,471.5C 240.5,471.5 241.5,471.5 242.5,471.5C 247.849,471.145 253.182,470.978 258.5,471C 257.833,471.333 257.167,471.667 256.5,472C 258.081,472.707 259.581,473.54 261,474.5C 261.308,473.692 261.808,473.025 262.5,472.5C 264.536,473.885 266.536,475.218 268.5,476.5 Z"/></g>
<g><path style="opacity:1" fill="#e67773" d="M 640.5,491.5 C 640.5,488.5 640.5,485.5 640.5,482.5C 623.5,482.5 606.5,482.5 589.5,482.5C 589.5,486.167 589.5,489.833 589.5,493.5C 599.5,493.5 609.5,493.5 619.5,493.5C 619.737,494.791 619.404,495.791 618.5,496.5C 608.889,494.526 598.889,493.859 588.5,494.5C 588.5,490.167 588.5,485.833 588.5,481.5C 606.167,481.5 623.833,481.5 641.5,481.5C 641.813,485.042 641.479,488.375 640.5,491.5 Z"/></g>
<g><path style="opacity:1" fill="#f7f2f1" d="M 816.5,527.5 C 816.027,526.094 815.027,525.427 813.5,525.5C 808.709,519.359 807.209,512.359 809,504.5C 813.62,495.062 821.12,491.562 831.5,494C 845.831,501.565 848.331,512.065 839,525.5C 831.785,531.212 824.285,531.879 816.5,527.5 Z"/></g>
<g><path style="opacity:1" fill="#ee180e" d="M 450.5,483.5 C 457.074,494.593 463.907,505.593 471,516.5C 475.03,509.66 479.196,502.994 483.5,496.5C 484.906,496.027 485.573,495.027 485.5,493.5C 488.084,492.952 489.084,491.285 488.5,488.5C 490.408,487.514 491.408,485.848 491.5,483.5C 496.07,482.559 500.737,482.226 505.5,482.5C 505.5,502.167 505.5,521.833 505.5,541.5C 501.167,541.5 496.833,541.5 492.5,541.5C 492.832,530.147 492.499,518.814 491.5,507.5C 490.478,507.855 489.811,508.522 489.5,509.5C 488.89,510.391 488.557,511.391 488.5,512.5C 486.75,513.659 485.75,515.326 485.5,517.5C 484.094,517.973 483.427,518.973 483.5,520.5C 481.75,521.659 480.75,523.326 480.5,525.5C 479.094,525.973 478.427,526.973 478.5,528.5C 478.5,528.833 478.5,529.167 478.5,529.5C 476.461,530.911 475.461,532.911 475.5,535.5C 472.5,535.5 469.5,535.5 466.5,535.5C 466.34,533.847 465.674,532.514 464.5,531.5C 464.573,529.973 463.906,528.973 462.5,528.5C 460.003,522.835 457.003,517.502 453.5,512.5C 453.34,510.847 452.674,509.514 451.5,508.5C 451.44,507.957 451.107,507.624 450.5,507.5C 449.501,518.814 449.168,530.147 449.5,541.5C 445.5,541.5 441.5,541.5 437.5,541.5C 437.5,521.833 437.5,502.167 437.5,482.5C 441.931,482.231 446.265,482.564 450.5,483.5 Z"/></g>
<g><path style="opacity:1" fill="#e97b75" d="M 485.5,493.5 C 485.573,495.027 484.906,496.027 483.5,496.5C 483.427,494.973 484.094,493.973 485.5,493.5 Z"/></g>
<g><path style="opacity:1" fill="#e55448" d="M 488.5,488.5 C 489.084,491.285 488.084,492.952 485.5,493.5C 485.75,491.326 486.75,489.659 488.5,488.5 Z"/></g>
<g><path style="opacity:1" fill="#e4544a" d="M 491.5,483.5 C 491.408,485.848 490.408,487.514 488.5,488.5C 488.75,486.326 489.75,484.659 491.5,483.5 Z"/></g>
<g><path style="opacity:1" fill="#e06361" d="M 766.5,482.5 C 766.5,482.167 766.5,481.833 766.5,481.5C 771.5,481.5 776.5,481.5 781.5,481.5C 781.829,494.677 781.495,507.677 780.5,520.5C 780.5,507.833 780.5,495.167 780.5,482.5C 775.833,482.5 771.167,482.5 766.5,482.5 Z"/></g>
<g><path style="opacity:1" fill="#e78c87" d="M 796.5,496.5 C 796.573,498.027 795.906,499.027 794.5,499.5C 794.427,497.973 795.094,496.973 796.5,496.5 Z"/></g>
<g><path style="opacity:1" fill="#e69a99" d="M 634.5,498.5 C 634.573,500.027 633.906,501.027 632.5,501.5C 632.427,499.973 633.094,498.973 634.5,498.5 Z"/></g>
<g><path style="opacity:1" fill="#ed3832" d="M 316.5,440.5 C 316.5,445.5 316.5,450.5 316.5,455.5C 316.5,466.5 316.5,477.5 316.5,488.5C 316.125,491.397 316.625,494.063 318,496.5C 319.049,494.893 320.549,494.227 322.5,494.5C 322.238,495.978 322.571,497.311 323.5,498.5C 324.192,497.975 324.692,497.308 325,496.5C 326,497.833 327,499.167 328,500.5C 328.689,499.643 329.522,498.977 330.5,498.5C 332.816,501.427 334.316,501.093 335,497.5C 335.833,499 337,500.167 338.5,501C 337.465,502.507 337.632,504.007 339,505.5C 339.654,504.304 340.154,504.304 340.5,505.5C 338.827,507.086 336.827,507.753 334.5,507.5C 334.714,509.144 334.38,510.644 333.5,512C 331.316,511.392 329.316,512.059 327.5,514C 329.107,515.049 329.773,516.549 329.5,518.5C 324.796,524.205 319.463,529.205 313.5,533.5C 313.5,533.167 313.5,532.833 313.5,532.5C 314.847,527.603 315.847,522.603 316.5,517.5C 315.69,497.524 315.19,477.524 315,457.5C 314.586,457.043 314.086,456.709 313.5,456.5C 299.548,465.645 284.548,472.312 268.5,476.5C 266.536,475.218 264.536,473.885 262.5,472.5C 261.808,473.025 261.308,473.692 261,474.5C 259.581,473.54 258.081,472.707 256.5,472C 257.167,471.667 257.833,471.333 258.5,471C 253.182,470.978 247.849,471.145 242.5,471.5C 245.167,470.833 247.833,470.167 250.5,469.5C 251.167,469.5 251.833,469.5 252.5,469.5C 255.002,469.251 257.502,468.917 260,468.5C 261.681,468.392 262.848,467.725 263.5,466.5C 266.421,465.304 269.421,464.304 272.5,463.5C 275.491,463.834 277.824,462.834 279.5,460.5C 282.491,460.834 284.824,459.834 286.5,457.5C 291.794,454.518 297.127,451.518 302.5,448.5C 304.027,448.573 305.027,447.906 305.5,446.5C 308.433,444.355 311.433,442.188 314.5,440C 315.437,439.308 316.103,439.475 316.5,440.5 Z"/></g>
<g><path style="opacity:1" fill="#eb150d" d="M 694.5,517.5 C 685.833,517.5 677.167,517.5 668.5,517.5C 667.508,525.316 667.174,533.316 667.5,541.5C 663.167,541.5 658.833,541.5 654.5,541.5C 654.5,522.167 654.5,502.833 654.5,483.5C 658.833,483.5 663.167,483.5 667.5,483.5C 667.175,490.687 667.509,497.687 668.5,504.5C 677.167,505.833 685.833,505.833 694.5,504.5C 695.492,497.352 695.825,490.019 695.5,482.5C 699.833,482.5 704.167,482.5 708.5,482.5C 708.5,502.167 708.5,521.833 708.5,541.5C 704.167,541.5 699.833,541.5 695.5,541.5C 695.826,533.316 695.492,525.316 694.5,517.5 Z"/></g>
<g><path style="opacity:1" fill="#df312d" d="M 653.5,482.5 C 658.363,482.181 663.03,482.514 667.5,483.5C 663.167,483.5 658.833,483.5 654.5,483.5C 654.5,502.833 654.5,522.167 654.5,541.5C 658.833,541.5 663.167,541.5 667.5,541.5C 667.174,533.316 667.508,525.316 668.5,517.5C 668.5,525.833 668.5,534.167 668.5,542.5C 663.5,542.5 658.5,542.5 653.5,542.5C 653.5,522.5 653.5,502.5 653.5,482.5 Z"/></g>
<g><path style="opacity:1" fill="#e99b98" d="M 668.5,481.5 C 669.492,488.982 669.825,496.648 669.5,504.5C 677.5,504.5 685.5,504.5 693.5,504.5C 693.175,496.648 693.508,488.982 694.5,481.5C 694.5,489.167 694.5,496.833 694.5,504.5C 685.833,505.833 677.167,505.833 668.5,504.5C 668.5,496.833 668.5,489.167 668.5,481.5 Z"/></g>
<g><path style="opacity:1" fill="#f6615b" d="M 393.5,489.5 C 395.77,493.108 398.437,496.442 401.5,499.5C 402.414,509.822 402.414,520.155 401.5,530.5C 400.778,530.918 400.278,531.584 400,532.5C 399.535,536.848 399.035,541.181 398.5,545.5C 398.5,545.833 398.5,546.167 398.5,546.5C 398.167,546.5 397.833,546.5 397.5,546.5C 397.67,545.178 397.337,544.011 396.5,543C 398.153,538.197 399.153,533.197 399.5,528C 399.194,525.025 397.694,522.858 395,521.5C 394.667,522.5 394.333,523.5 394,524.5C 393.547,520.531 392.713,516.531 391.5,512.5C 391.663,510.143 391.497,507.81 391,505.5C 388.869,502.898 387.035,500.232 385.5,497.5C 387.833,494.5 390.5,491.833 393.5,489.5 Z"/></g>
<g><path style="opacity:1" fill="#f1d6d2" d="M 725.5,481.5 C 730.64,480.512 735.974,480.179 741.5,480.5C 741.5,493.833 741.5,507.167 741.5,520.5C 740.662,520.158 740.328,519.492 740.5,518.5C 740.5,506.167 740.5,493.833 740.5,481.5C 735.5,481.5 730.5,481.5 725.5,481.5 Z"/></g>
<g><path style="opacity:1" fill="#e08180" d="M 267.5,506.5 C 253.962,507.2 240.295,507.867 226.5,508.5C 226.611,507.883 226.944,507.383 227.5,507C 240.829,506.5 254.163,506.333 267.5,506.5 Z"/></g>
<g><path style="opacity:1" fill="#e67570" d="M 537.5,518.5 C 536.505,506.678 536.172,494.678 536.5,482.5C 531.833,482.5 527.167,482.5 522.5,482.5C 522.5,494.833 522.5,507.167 522.5,519.5C 521.505,507.011 521.171,494.344 521.5,481.5C 526.833,481.5 532.167,481.5 537.5,481.5C 537.5,493.833 537.5,506.167 537.5,518.5 Z"/></g>
<g><path style="opacity:1" fill="#e75853" d="M 794.5,501.5 C 793.693,507.464 793.36,513.464 793.5,519.5C 792.836,517.19 792.503,514.69 792.5,512C 792.304,508.195 792.97,504.695 794.5,501.5 Z"/></g>
<g><path style="opacity:1" fill="#cb281c" d="M 193.5,506.5 C 200.175,506.334 206.842,506.5 213.5,507C 217.5,510 217.5,513 213.5,516C 206.5,516.667 199.5,516.667 192.5,516C 189.636,512.376 189.969,509.209 193.5,506.5 Z"/></g>
<g><path style="opacity:1" fill="#cf1a14" d="M 309.5,537.5 C 306.371,541.131 303.037,544.631 299.5,548C 298.5,548.667 297.5,548.667 296.5,548C 288.5,539.333 280.5,530.667 272.5,522C 270.505,521.387 268.838,521.887 267.5,523.5C 264.387,521.282 261.387,521.282 258.5,523.5C 257.948,521.997 257.948,520.331 258.5,518.5C 248.889,516.526 238.889,515.859 228.5,516.5C 225.66,514.285 224.993,511.618 226.5,508.5C 240.295,507.867 253.962,507.2 267.5,506.5C 271.415,503.729 271.415,500.895 267.5,498C 255.171,497.5 242.838,497.333 230.5,497.5C 230.5,497.167 230.5,496.833 230.5,496.5C 238.84,496.666 247.173,496.5 255.5,496C 252.623,494.873 249.623,494.206 246.5,494C 246.043,493.586 245.709,493.086 245.5,492.5C 246.5,491.167 247.5,489.833 248.5,488.5C 248.277,487.033 247.944,485.533 247.5,484C 251.252,483.024 251.918,483.69 249.5,486C 251.246,486.471 252.913,487.138 254.5,488C 254.167,488.333 253.833,488.667 253.5,489C 258.456,490.336 263.456,492.336 268.5,495C 271.473,497.448 272.973,500.614 273,504.5C 275.892,505.394 278.226,507.06 280,509.5C 281.113,510.76 281.28,511.927 280.5,513C 281.253,514.487 282.086,514.654 283,513.5C 286.175,516.343 289.009,519.51 291.5,523C 292.9,524.438 294.567,525.271 296.5,525.5C 297.373,529.689 300.04,531.689 304.5,531.5C 304.36,533.124 305.027,534.29 306.5,535C 305.743,536.512 304.743,537.846 303.5,539C 305.35,538.405 307.35,537.905 309.5,537.5 Z"/></g>
<g><path style="opacity:1" fill="#eba39f" d="M 766.5,481.5 C 766.5,481.833 766.5,482.167 766.5,482.5C 766.667,495.171 766.5,507.838 766,520.5C 765.768,521.737 765.268,522.737 764.5,523.5C 765.057,509.344 765.724,495.344 766.5,481.5 Z"/></g>
<g><path style="opacity:1" fill="#ed332d" d="M 385.5,497.5 C 387.035,500.232 388.869,502.898 391,505.5C 391.497,507.81 391.663,510.143 391.5,512.5C 392.31,525.882 390.977,538.882 387.5,551.5C 387.337,547.293 387.671,543.126 388.5,539C 388.065,535.937 387.232,535.77 386,538.5C 385.682,536.939 384.849,535.772 383.5,535C 383.404,533.627 383.57,532.127 384,530.5C 380.96,534.555 379.626,534.221 380,529.5C 377.378,533.047 375.045,533.047 373,529.5C 372.092,531.439 370.592,532.439 368.5,532.5C 368.5,531.5 368.5,530.5 368.5,529.5C 369.675,529.719 370.675,529.386 371.5,528.5C 370.726,527.289 369.893,527.289 369,528.5C 368.667,527.833 368.333,527.167 368,526.5C 366.653,530.375 365.486,530.375 364.5,526.5C 363.12,527.976 361.453,528.976 359.5,529.5C 358.614,528.675 358.281,527.675 358.5,526.5C 367.889,517.114 376.889,507.447 385.5,497.5 Z"/></g>
<g><path style="opacity:1" fill="#de4e4a" d="M 450.5,483.5 C 446.265,482.564 441.931,482.231 437.5,482.5C 437.5,502.167 437.5,521.833 437.5,541.5C 441.5,541.5 445.5,541.5 449.5,541.5C 449.833,541.5 450.167,541.5 450.5,541.5C 450.5,541.833 450.5,542.167 450.5,542.5C 445.833,542.5 441.167,542.5 436.5,542.5C 436.5,522.167 436.5,501.833 436.5,481.5C 441.619,480.897 446.285,481.564 450.5,483.5 Z"/></g>
<g><path style="opacity:1" fill="#e8cdce" d="M 228.5,516.5 C 238.889,515.859 248.889,516.526 258.5,518.5C 255.5,521.167 252.5,523.833 249.5,526.5C 249.5,525.167 249.5,523.833 249.5,522.5C 252.999,522.741 253.332,521.908 250.5,520C 253.544,519.641 253.878,518.974 251.5,518C 243.656,517.829 235.989,517.329 228.5,516.5 Z"/></g>
<g><path style="opacity:1" fill="#e3322f" d="M 451.5,508.5 C 450.505,519.321 450.172,530.321 450.5,541.5C 450.167,541.5 449.833,541.5 449.5,541.5C 449.168,530.147 449.501,518.814 450.5,507.5C 451.107,507.624 451.44,507.957 451.5,508.5 Z"/></g>
<g><path style="opacity:1" fill="#e9a09c" d="M 485.5,517.5 C 485.573,519.027 484.906,520.027 483.5,520.5C 483.427,518.973 484.094,517.973 485.5,517.5 Z"/></g>
<g><path style="opacity:1" fill="#e5a6a0" d="M 451.5,508.5 C 452.674,509.514 453.34,510.847 453.5,512.5C 452.883,512.389 452.383,512.056 452,511.5C 451.83,522.008 451.33,532.341 450.5,542.5C 450.5,542.167 450.5,541.833 450.5,541.5C 450.172,530.321 450.505,519.321 451.5,508.5 Z"/></g>
<g><path style="opacity:1" fill="#dd413d" d="M 694.5,481.5 C 699.5,481.5 704.5,481.5 709.5,481.5C 709.5,501.833 709.5,522.167 709.5,542.5C 704.5,542.5 699.5,542.5 694.5,542.5C 694.5,534.167 694.5,525.833 694.5,517.5C 695.492,525.316 695.826,533.316 695.5,541.5C 699.833,541.5 704.167,541.5 708.5,541.5C 708.5,521.833 708.5,502.167 708.5,482.5C 704.167,482.5 699.833,482.5 695.5,482.5C 695.825,490.019 695.492,497.352 694.5,504.5C 694.5,496.833 694.5,489.167 694.5,481.5 Z"/></g>
<g><path style="opacity:1" fill="#f85750" d="M 391.5,512.5 C 392.713,516.531 393.547,520.531 394,524.5C 394.333,523.5 394.667,522.5 395,521.5C 397.694,522.858 399.194,525.025 399.5,528C 399.153,533.197 398.153,538.197 396.5,543C 397.337,544.011 397.67,545.178 397.5,546.5C 395.708,552.358 394.374,558.358 393.5,564.5C 393.5,565.167 393.5,565.833 393.5,566.5C 392.833,567.167 392.167,567.833 391.5,568.5C 391.421,567.07 391.754,565.736 392.5,564.5C 390.645,562.456 389.978,560.289 390.5,558C 392.899,556.04 393.065,553.874 391,551.5C 388.5,557.676 387.333,557.676 387.5,551.5C 390.977,538.882 392.31,525.882 391.5,512.5 Z"/></g>
<g><path style="opacity:1" fill="#f1bab7" d="M 483.5,520.5 C 483.408,522.848 482.408,524.514 480.5,525.5C 480.75,523.326 481.75,521.659 483.5,520.5 Z"/></g>
<g><path style="opacity:1" fill="#eda6a2" d="M 813.5,525.5 C 815.027,525.427 816.027,526.094 816.5,527.5C 814.973,527.573 813.973,526.906 813.5,525.5 Z"/></g>
<g><path style="opacity:1" fill="#e78381" d="M 480.5,525.5 C 480.573,527.027 479.906,528.027 478.5,528.5C 478.427,526.973 479.094,525.973 480.5,525.5 Z"/></g>
<g><path style="opacity:1" fill="#edd3d3" d="M 489.5,509.5 C 491.477,520.116 492.144,531.116 491.5,542.5C 490.67,532.341 490.17,522.008 490,511.5C 489.617,512.056 489.117,512.389 488.5,512.5C 488.557,511.391 488.89,510.391 489.5,509.5 Z"/></g>
<g><path style="opacity:1" fill="#ecbab7" d="M 577.5,524.5 C 577.708,528.085 576.375,530.751 573.5,532.5C 574.326,529.515 575.659,526.849 577.5,524.5 Z"/></g>
<g><path style="opacity:1" fill="#ea9993" d="M 608.5,528.5 C 608.833,528.5 609.167,528.5 609.5,528.5C 620.167,529.167 630.833,529.833 641.5,530.5C 630.116,531.144 619.116,530.477 608.5,528.5 Z"/></g>
<g><path style="opacity:1" fill="#eaa0a0" d="M 462.5,528.5 C 463.906,528.973 464.573,529.973 464.5,531.5C 463.094,531.027 462.427,530.027 462.5,528.5 Z"/></g>
<g><path style="opacity:1" fill="#e9736d" d="M 505.5,481.5 C 506.497,501.66 506.83,521.993 506.5,542.5C 501.5,542.5 496.5,542.5 491.5,542.5C 492.144,531.116 491.477,520.116 489.5,509.5C 489.811,508.522 490.478,507.855 491.5,507.5C 492.499,518.814 492.832,530.147 492.5,541.5C 496.833,541.5 501.167,541.5 505.5,541.5C 505.5,521.833 505.5,502.167 505.5,482.5C 505.5,482.167 505.5,481.833 505.5,481.5 Z"/></g>
<g><path style="opacity:1" fill="#ee190f" d="M 537.5,518.5 C 539.95,530.439 546.617,533.606 557.5,528C 560.2,526.143 561.866,523.643 562.5,520.5C 563.495,508.011 563.829,495.344 563.5,482.5C 568.167,482.5 572.833,482.5 577.5,482.5C 577.5,495.833 577.5,509.167 577.5,522.5C 577.5,523.167 577.5,523.833 577.5,524.5C 575.659,526.849 574.326,529.515 573.5,532.5C 572.094,532.973 571.427,533.973 571.5,535.5C 569.611,536.604 567.945,537.937 566.5,539.5C 562.873,540.321 559.54,541.654 556.5,543.5C 537.352,546.279 526.019,538.279 522.5,519.5C 522.5,507.167 522.5,494.833 522.5,482.5C 527.167,482.5 531.833,482.5 536.5,482.5C 536.172,494.678 536.505,506.678 537.5,518.5 Z"/></g>
<g><path style="opacity:1" fill="#e62b23" d="M 608.5,528.5 C 619.116,530.477 630.116,531.144 641.5,530.5C 641.5,534.5 641.5,538.5 641.5,542.5C 623.833,542.5 606.167,542.5 588.5,542.5C 588.335,538.818 588.501,535.152 589,531.5C 589.708,530.619 590.542,529.953 591.5,529.5C 589.998,533.342 589.332,537.342 589.5,541.5C 606.5,541.5 623.5,541.5 640.5,541.5C 640.54,538.119 640.207,534.786 639.5,531.5C 628.833,531.5 618.167,531.5 607.5,531.5C 607.263,530.209 607.596,529.209 608.5,528.5 Z"/></g>
<g><path style="opacity:1" fill="#ef180d" d="M 614.5,521.5 C 613.079,524.009 611.412,526.343 609.5,528.5C 609.167,528.5 608.833,528.5 608.5,528.5C 607.596,529.209 607.263,530.209 607.5,531.5C 618.167,531.5 628.833,531.5 639.5,531.5C 640.207,534.786 640.54,538.119 640.5,541.5C 623.5,541.5 606.5,541.5 589.5,541.5C 589.332,537.342 589.998,533.342 591.5,529.5C 595.083,523.581 599.416,518.248 604.5,513.5C 606.824,511.723 609.491,510.723 612.5,510.5C 612.281,511.675 612.614,512.675 613.5,513.5C 615.667,512.046 617.667,512.212 619.5,514C 616.038,515.296 614.372,517.796 614.5,521.5 Z"/></g>
<g><path style="opacity:1" fill="#e6a59e" d="M 573.5,532.5 C 573.573,534.027 572.906,535.027 571.5,535.5C 571.427,533.973 572.094,532.973 573.5,532.5 Z"/></g>
<g><path style="opacity:1" fill="#e3cbc9" d="M 242.5,534.5 C 228.833,535.167 215.167,535.833 201.5,536.5C 201.167,536.5 200.833,536.5 200.5,536.5C 214.127,534.518 228.127,533.851 242.5,534.5 Z"/></g>
<g><path style="opacity:1" fill="#e6a7a1" d="M 668.5,517.5 C 677.167,517.5 685.833,517.5 694.5,517.5C 694.5,525.833 694.5,534.167 694.5,542.5C 693.508,534.684 693.174,526.684 693.5,518.5C 685.5,518.5 677.5,518.5 669.5,518.5C 669.826,526.684 669.492,534.684 668.5,542.5C 668.5,534.167 668.5,525.833 668.5,517.5 Z"/></g>
<g><path style="opacity:1" fill="#cf4746" d="M 184.5,536.5 C 174.115,536.214 163.782,536.548 153.5,537.5C 153.611,536.883 153.944,536.383 154.5,536C 164.675,535.175 174.675,535.342 184.5,536.5 Z"/></g>
<g><path style="opacity:1" fill="#eabbb8" d="M 478.5,529.5 C 478.753,531.827 478.086,533.827 476.5,535.5C 473.02,536.806 469.687,536.806 466.5,535.5C 469.5,535.5 472.5,535.5 475.5,535.5C 475.461,532.911 476.461,530.911 478.5,529.5 Z"/></g>
<g><path style="opacity:1" fill="#edd8d5" d="M 780.5,525.5 C 779.795,528.726 778.795,531.893 777.5,535C 778.337,536.011 778.67,537.178 778.5,538.5C 775.763,538.401 773.096,538.735 770.5,539.5C 774.826,535.503 778.16,530.836 780.5,525.5 Z"/></g>
<g><path style="opacity:1" fill="#c92419" d="M 184.5,536.5 C 188.467,539.201 188.467,542.034 184.5,545C 174.833,545.667 165.167,545.667 155.5,545C 152.592,542.93 151.926,540.43 153.5,537.5C 163.782,536.548 174.115,536.214 184.5,536.5 Z"/></g>
<g><path style="opacity:1" fill="#cf1711" d="M 417.5,443.5 C 418.434,444.568 418.768,445.901 418.5,447.5C 417.66,453.195 416.66,458.861 415.5,464.5C 414.549,465.919 414.216,467.585 414.5,469.5C 412.897,475.325 411.564,481.325 410.5,487.5C 410.087,489.89 409.421,492.223 408.5,494.5C 405.167,490.833 401.833,487.167 398.5,483.5C 396.086,484.911 394.419,486.911 393.5,489.5C 390.5,491.833 387.833,494.5 385.5,497.5C 376.889,507.447 367.889,517.114 358.5,526.5C 350.924,535.415 342.924,544.082 334.5,552.5C 333.474,553.853 332.141,554.853 330.5,555.5C 330.714,553.856 330.38,552.356 329.5,551C 330.642,548.55 331.642,546.05 332.5,543.5C 349.155,523.513 366.155,503.846 383.5,484.5C 385.814,482.523 388.147,480.523 390.5,478.5C 394.162,478.162 394.829,476.995 392.5,475C 396.597,473.078 398.93,469.912 399.5,465.5C 404.095,458.898 409.095,452.565 414.5,446.5C 415.728,445.694 416.728,444.694 417.5,443.5 Z"/></g>
<g><path style="opacity:1" fill="#d72118" d="M 200.5,536.5 C 200.833,536.5 201.167,536.5 201.5,536.5C 208.532,536.17 215.532,536.503 222.5,537.5C 225.264,540.51 224.597,542.676 220.5,544C 214.175,544.5 207.842,544.666 201.5,544.5C 197.93,542.224 197.597,539.558 200.5,536.5 Z"/></g>
<g><path style="opacity:1" fill="#e82620" d="M 358.5,526.5 C 358.281,527.675 358.614,528.675 359.5,529.5C 361.453,528.976 363.12,527.976 364.5,526.5C 365.486,530.375 366.653,530.375 368,526.5C 368.333,527.167 368.667,527.833 369,528.5C 369.893,527.289 370.726,527.289 371.5,528.5C 370.675,529.386 369.675,529.719 368.5,529.5C 368.5,530.5 368.5,531.5 368.5,532.5C 370.592,532.439 372.092,531.439 373,529.5C 375.045,533.047 377.378,533.047 380,529.5C 379.626,534.221 380.96,534.555 384,530.5C 383.57,532.127 383.404,533.627 383.5,535C 384.849,535.772 385.682,536.939 386,538.5C 387.232,535.77 388.065,535.937 388.5,539C 387.671,543.126 387.337,547.293 387.5,551.5C 386.167,555.167 384.833,558.833 383.5,562.5C 383.44,561.957 383.107,561.624 382.5,561.5C 381.376,562.914 380.376,564.414 379.5,566C 376.012,565.98 375.679,564.814 378.5,562.5C 377.065,560.559 376.065,558.892 375.5,557.5C 374.686,559.766 374.186,562.1 374,564.5C 373.326,560.73 372.493,556.73 371.5,552.5C 370.319,554.135 370.319,555.802 371.5,557.5C 371.167,557.833 370.833,558.167 370.5,558.5C 369.5,557.167 368.5,555.833 367.5,554.5C 367.419,556.633 366.919,558.633 366,560.5C 365.647,557.461 364.48,554.795 362.5,552.5C 360.586,554.202 359.086,556.202 358,558.5C 355.757,556.469 353.923,554.136 352.5,551.5C 352.433,553.424 352.1,555.424 351.5,557.5C 349.927,559.836 348.594,559.836 347.5,557.5C 348.325,556.614 349.325,556.281 350.5,556.5C 350.5,555.5 350.5,554.5 350.5,553.5C 348.857,553.48 347.524,554.147 346.5,555.5C 345.718,553.671 346.384,552.171 348.5,551C 345.672,551.346 343.505,552.846 342,555.5C 341.077,554.241 340.243,552.908 339.5,551.5C 338.167,552.5 336.833,553.5 335.5,554.5C 334.702,554.043 334.369,553.376 334.5,552.5C 342.924,544.082 350.924,535.415 358.5,526.5 Z"/></g>
<g><path style="opacity:1" fill="#e73326" d="M 726.5,524.5 C 731.166,529.499 735.832,534.499 740.5,539.5C 746.323,541.619 752.323,542.619 758.5,542.5C 758.5,542.833 758.5,543.167 758.5,543.5C 742.459,545.825 731.793,539.492 726.5,524.5 Z"/></g>
<g><path style="opacity:1" fill="#e5b3af" d="M 566.5,539.5 C 563.808,542.181 560.475,543.514 556.5,543.5C 559.54,541.654 562.873,540.321 566.5,539.5 Z"/></g>
<g><path style="opacity:1" fill="#e9b9b6" d="M 770.5,539.5 C 767.207,542.598 763.207,543.931 758.5,543.5C 758.5,543.167 758.5,542.833 758.5,542.5C 762.643,542.096 766.643,541.096 770.5,539.5 Z"/></g>
<g><path style="opacity:1" fill="#e34d45" d="M 811.5,540.5 C 814.152,540.41 816.485,541.076 818.5,542.5C 815.848,542.59 813.515,541.924 811.5,540.5 Z"/></g>
<g><path style="opacity:1" fill="#e8aba4" d="M 843.5,539.5 C 841.383,541.655 838.716,542.655 835.5,542.5C 837.936,541.129 840.603,540.129 843.5,539.5 Z"/></g>
<g><path style="opacity:1" fill="#ed8e87" d="M 401.5,530.5 C 401.225,535.777 400.225,540.777 398.5,545.5C 399.035,541.181 399.535,536.848 400,532.5C 400.278,531.584 400.778,530.918 401.5,530.5 Z"/></g>
<g><path style="opacity:1" fill="#e7cbcc" d="M 201.5,545.5 C 217.837,545.333 234.17,545.5 250.5,546C 252.373,547.704 254.04,549.537 255.5,551.5C 253.114,550.627 251.114,549.127 249.5,547C 233.328,546.831 217.328,546.331 201.5,545.5 Z"/></g>
<g><path style="opacity:1" fill="#be2219" d="M 332.5,543.5 C 331.642,546.05 330.642,548.55 329.5,551C 330.38,552.356 330.714,553.856 330.5,555.5C 329.193,554.847 327.86,554.18 326.5,553.5C 323.486,559.848 318.819,564.514 312.5,567.5C 313.08,565.251 314.413,563.585 316.5,562.5C 318.587,561.415 319.92,559.749 320.5,557.5C 324.155,552.514 328.155,547.847 332.5,543.5 Z"/></g>
<g><path style="opacity:1" fill="#d17778" d="M 255.5,551.5 C 256.404,552.209 256.737,553.209 256.5,554.5C 249.5,554.5 242.5,554.5 235.5,554.5C 242.395,554.15 249.062,553.15 255.5,551.5 Z"/></g>
<g><path style="opacity:1" fill="#e97972" d="M 397.5,546.5 C 397.833,546.5 398.167,546.5 398.5,546.5C 397.328,552.725 395.661,558.725 393.5,564.5C 394.374,558.358 395.708,552.358 397.5,546.5 Z"/></g>
<g><path style="opacity:1" fill="#c55a51" d="M 320.5,557.5 C 319.92,559.749 318.587,561.415 316.5,562.5C 317.08,560.251 318.413,558.585 320.5,557.5 Z"/></g>
<g><path style="opacity:1" fill="#deb4b7" d="M 235.5,554.5 C 236.167,557.5 236.833,560.5 237.5,563.5C 248.014,563.172 258.347,563.506 268.5,564.5C 257.833,564.5 247.167,564.5 236.5,564.5C 236.045,561.797 235.378,559.13 234.5,556.5C 234.543,555.584 234.876,554.917 235.5,554.5 Z"/></g>
<g><path style="opacity:1" fill="#f0766d" d="M 679.5,565.5 C 675.466,565.505 671.466,565.838 667.5,566.5C 669.679,565.074 672.179,564.408 675,564.5C 676.707,564.508 678.207,564.842 679.5,565.5 Z"/></g>
<g><path style="opacity:1" fill="#ee8f88" d="M 790.5,565.5 C 794.311,564.355 798.311,564.188 802.5,565C 803.056,565.383 803.389,565.883 803.5,566.5C 799.232,565.627 794.898,565.294 790.5,565.5 Z"/></g>
<g><path style="opacity:1" fill="#ba1e15" d="M 258.5,518.5 C 257.948,520.331 257.948,521.997 258.5,523.5C 261.387,521.282 264.387,521.282 267.5,523.5C 263.87,527.631 260.037,531.631 256,535.5C 255.333,536.167 255.333,536.833 256,537.5C 269.833,552 283.667,566.5 297.5,581C 298.635,581.749 299.635,581.583 300.5,580.5C 302.885,577.788 305.218,575.122 307.5,572.5C 307.33,573.822 307.663,574.989 308.5,576C 305.887,578.613 303.221,581.279 300.5,584C 298.536,584.624 296.869,584.124 295.5,582.5C 293.697,584.619 292.364,586.952 291.5,589.5C 290.167,588.5 288.833,587.5 287.5,586.5C 286.972,585.279 286.305,584.113 285.5,583C 263.169,582.5 240.836,582.333 218.5,582.5C 217.833,582.5 217.5,582.167 217.5,581.5C 227.167,581.5 236.833,581.5 246.5,581.5C 245.5,578.833 244.5,576.167 243.5,573.5C 254.187,573.832 264.854,573.499 275.5,572.5C 275.376,571.893 275.043,571.56 274.5,571.5C 273.833,570.167 272.833,569.167 271.5,568.5C 270.488,567.128 269.488,565.795 268.5,564.5C 258.347,563.506 248.014,563.172 237.5,563.5C 236.833,560.5 236.167,557.5 235.5,554.5C 242.5,554.5 249.5,554.5 256.5,554.5C 256.737,553.209 256.404,552.209 255.5,551.5C 254.04,549.537 252.373,547.704 250.5,546C 234.17,545.5 217.837,545.333 201.5,545.5C 201.5,545.167 201.5,544.833 201.5,544.5C 207.842,544.666 214.175,544.5 220.5,544C 224.597,542.676 225.264,540.51 222.5,537.5C 215.532,536.503 208.532,536.17 201.5,536.5C 215.167,535.833 228.833,535.167 242.5,534.5C 244.833,531.833 247.167,529.167 249.5,526.5C 252.5,523.833 255.5,521.167 258.5,518.5 Z"/></g>
<g><path style="opacity:1" fill="#f14b42" d="M 387.5,551.5 C 387.333,557.676 388.5,557.676 391,551.5C 393.065,553.874 392.899,556.04 390.5,558C 389.978,560.289 390.645,562.456 392.5,564.5C 391.754,565.736 391.421,567.07 391.5,568.5C 390.302,571.426 389.302,574.426 388.5,577.5C 379.975,594.852 368.309,609.852 353.5,622.5C 353.421,621.07 353.754,619.736 354.5,618.5C 351.403,617.806 351.069,616.806 353.5,615.5C 354.167,615.833 354.833,616.167 355.5,616.5C 356.937,613.493 357.937,610.326 358.5,607C 360.016,604.734 362.016,603.234 364.5,602.5C 364.281,601.325 364.614,600.325 365.5,599.5C 365.307,600.688 365.807,602.022 367,603.5C 367.667,600.833 368.333,600.833 369,603.5C 373.431,598.907 376.764,593.573 379,587.5C 379.667,586.167 380.333,586.167 381,587.5C 382.195,584.813 382.362,582.146 381.5,579.5C 383.203,578.11 383.87,576.61 383.5,575C 383.167,574.833 382.833,574.667 382.5,574.5C 381.333,576.167 380.167,577.833 379,579.5C 378.616,577.803 378.782,576.137 379.5,574.5C 380.364,570.318 381.697,566.318 383.5,562.5C 384.833,558.833 386.167,555.167 387.5,551.5 Z"/></g>
<g><path style="opacity:1" fill="#ef6f69" d="M 790.5,565.5 C 789.07,566.537 787.403,567.204 785.5,567.5C 786.635,565.787 788.302,565.12 790.5,565.5 Z"/></g>
<g><path style="opacity:1" fill="#ee625b" d="M 522.5,565.5 C 521.415,567.587 519.749,568.92 517.5,569.5C 518.585,567.413 520.251,566.08 522.5,565.5 Z"/></g>
<g><path style="opacity:1" fill="#ec3e36" d="M 583.5,566.5 C 584.995,566.989 586.329,567.655 587.5,568.5C 586.5,568.5 585.5,568.5 584.5,568.5C 584.36,570.124 585.027,571.29 586.5,572C 585.944,572.383 585.611,572.883 585.5,573.5C 583.95,572.559 582.284,571.893 580.5,571.5C 576.366,570.515 572.032,570.182 567.5,570.5C 572.316,569.674 577.316,569.174 582.5,569C 583.252,568.329 583.586,567.496 583.5,566.5 Z"/></g>
<g><path style="opacity:1" fill="#e83832" d="M 638.5,570.5 C 631.167,570.5 623.833,570.5 616.5,570.5C 623.099,569.855 629.432,568.855 635.5,567.5C 627.528,566.502 619.528,566.169 611.5,566.5C 611.5,579.167 611.5,591.833 611.5,604.5C 610.505,591.677 610.171,578.677 610.5,565.5C 619.833,565.5 629.167,565.5 638.5,565.5C 638.5,567.167 638.5,568.833 638.5,570.5 Z"/></g>
<g><path style="opacity:1" fill="#eb493e" d="M 734.5,565.5 C 734.5,565.833 734.5,566.167 734.5,566.5C 725.827,566.334 717.16,566.5 708.5,567C 708.167,567.333 707.833,567.667 707.5,568C 710.482,568.498 713.482,568.665 716.5,568.5C 716.5,580.5 716.5,592.5 716.5,604.5C 715.505,593.346 715.172,582.012 715.5,570.5C 711.5,570.5 707.5,570.5 703.5,570.5C 703.5,568.833 703.5,567.167 703.5,565.5C 713.833,565.5 724.167,565.5 734.5,565.5 Z"/></g>
<g><path style="opacity:1" fill="#e71b15" d="M 734.5,566.5 C 734.5,567.833 734.5,569.167 734.5,570.5C 730.167,570.5 725.833,570.5 721.5,570.5C 721.5,581.833 721.5,593.167 721.5,604.5C 719.833,604.5 718.167,604.5 716.5,604.5C 716.5,592.5 716.5,580.5 716.5,568.5C 713.482,568.665 710.482,568.498 707.5,568C 707.833,567.667 708.167,567.333 708.5,567C 717.16,566.5 725.827,566.334 734.5,566.5 Z"/></g>
<g><path style="opacity:1" fill="#e9261c" d="M 522.5,565.5 C 528.245,565.211 533.912,565.711 539.5,567C 542.031,569.261 541.697,571.094 538.5,572.5C 537.942,571.21 536.942,570.377 535.5,570C 531.973,569.192 528.64,569.359 525.5,570.5C 521.746,571.828 520.579,574.494 522,578.5C 526.263,581.694 531.097,583.527 536.5,584C 544.559,588.881 545.559,594.881 539.5,602C 537.593,603.122 535.593,603.955 533.5,604.5C 528.797,604.563 524.13,604.229 519.5,603.5C 518.374,602.142 518.374,600.808 519.5,599.5C 524.297,600.802 528.964,600.802 533.5,599.5C 537.056,597.913 538.222,595.246 537,591.5C 531.436,588.649 525.602,586.482 519.5,585C 515.835,581.702 514.502,577.535 515.5,572.5C 516.906,572.027 517.573,571.027 517.5,569.5C 519.749,568.92 521.415,567.587 522.5,565.5 Z"/></g>
<g><path style="opacity:1" fill="#ee4f48" d="M 525.5,570.5 C 528.64,569.359 531.973,569.192 535.5,570C 536.942,570.377 537.942,571.21 538.5,572.5C 534.326,570.936 529.993,570.269 525.5,570.5 Z"/></g>
<g><path style="opacity:1" fill="#edb2af" d="M 616.5,570.5 C 623.833,570.5 631.167,570.5 638.5,570.5C 631.687,571.491 624.687,571.825 617.5,571.5C 617.5,574.833 617.5,578.167 617.5,581.5C 617.167,581.5 616.833,581.5 616.5,581.5C 616.5,577.833 616.5,574.167 616.5,570.5 Z"/></g>
<g><path style="opacity:1" fill="#ec948f" d="M 734.5,565.5 C 735.461,567.265 735.795,569.265 735.5,571.5C 731.167,571.5 726.833,571.5 722.5,571.5C 722.828,582.679 722.495,593.679 721.5,604.5C 721.5,593.167 721.5,581.833 721.5,570.5C 725.833,570.5 730.167,570.5 734.5,570.5C 734.5,569.167 734.5,567.833 734.5,566.5C 734.5,566.167 734.5,565.833 734.5,565.5 Z"/></g>
<g><path style="opacity:1" fill="#e4c7c6" d="M 271.5,568.5 C 272.833,569.167 273.833,570.167 274.5,571.5C 256.341,572.497 238.008,572.83 219.5,572.5C 236.995,571.668 254.662,571.168 272.5,571C 271.748,570.329 271.414,569.496 271.5,568.5 Z"/></g>
<g><path style="opacity:1" fill="#f47972" d="M 517.5,569.5 C 517.573,571.027 516.906,572.027 515.5,572.5C 515.427,570.973 516.094,569.973 517.5,569.5 Z"/></g>
<g><path style="opacity:1" fill="#ed423e" d="M 583.5,566.5 C 576.5,566.5 569.5,566.5 562.5,566.5C 562.5,579.167 562.5,591.833 562.5,604.5C 561.505,591.677 561.171,578.677 561.5,565.5C 569.019,565.175 576.352,565.508 583.5,566.5 Z"/></g>
<g><path style="opacity:1" fill="#f7f5f4" d="M 580.5,571.5 C 582.284,571.893 583.95,572.559 585.5,573.5C 586.758,577.134 586.758,580.8 585.5,584.5C 584.167,585.167 582.833,585.833 581.5,586.5C 577.167,586.5 572.833,586.5 568.5,586.5C 568.5,581.5 568.5,576.5 568.5,571.5C 572.5,571.5 576.5,571.5 580.5,571.5 Z"/></g>
<g><path style="opacity:1" fill="#db514f" d="M 202.5,573.5 C 196.441,573.254 190.441,573.587 184.5,574.5C 184.611,573.883 184.944,573.383 185.5,573C 191.349,572.182 197.015,572.348 202.5,573.5 Z"/></g>
<g><path style="opacity:1" fill="#d4504a" d="M 274.5,571.5 C 275.043,571.56 275.376,571.893 275.5,572.5C 264.854,573.499 254.187,573.832 243.5,573.5C 235.16,573.334 226.827,573.5 218.5,574C 216.845,575.444 216.178,577.278 216.5,579.5C 214.67,576.022 215.67,573.689 219.5,572.5C 238.008,572.83 256.341,572.497 274.5,571.5 Z"/></g>
<g><path style="opacity:1" fill="#e21a13" d="M 383.5,562.5 C 381.697,566.318 380.364,570.318 379.5,574.5C 367.951,596.222 351.951,614.055 331.5,628C 326.996,630.222 322.663,632.722 318.5,635.5C 318.217,634.711 317.717,634.044 317,633.5C 316.333,612.833 316.333,592.167 317,571.5C 322.208,566.741 326.708,561.407 330.5,555.5C 332.141,554.853 333.474,553.853 334.5,552.5C 334.369,553.376 334.702,554.043 335.5,554.5C 336.833,553.5 338.167,552.5 339.5,551.5C 340.243,552.908 341.077,554.241 342,555.5C 343.505,552.846 345.672,551.346 348.5,551C 346.384,552.171 345.718,553.671 346.5,555.5C 347.524,554.147 348.857,553.48 350.5,553.5C 350.5,554.5 350.5,555.5 350.5,556.5C 349.325,556.281 348.325,556.614 347.5,557.5C 348.594,559.836 349.927,559.836 351.5,557.5C 352.1,555.424 352.433,553.424 352.5,551.5C 353.923,554.136 355.757,556.469 358,558.5C 359.086,556.202 360.586,554.202 362.5,552.5C 364.48,554.795 365.647,557.461 366,560.5C 366.919,558.633 367.419,556.633 367.5,554.5C 368.5,555.833 369.5,557.167 370.5,558.5C 370.833,558.167 371.167,557.833 371.5,557.5C 370.319,555.802 370.319,554.135 371.5,552.5C 372.493,556.73 373.326,560.73 374,564.5C 374.186,562.1 374.686,559.766 375.5,557.5C 376.065,558.892 377.065,560.559 378.5,562.5C 375.679,564.814 376.012,565.98 379.5,566C 380.376,564.414 381.376,562.914 382.5,561.5C 383.107,561.624 383.44,561.957 383.5,562.5 Z"/></g>
<g><path style="opacity:1" fill="#e12419" d="M 243.5,573.5 C 244.5,576.167 245.5,578.833 246.5,581.5C 236.833,581.5 227.167,581.5 217.5,581.5C 217.167,580.833 216.833,580.167 216.5,579.5C 216.178,577.278 216.845,575.444 218.5,574C 226.827,573.5 235.16,573.334 243.5,573.5 Z"/></g>
<g><path style="opacity:1" fill="#eebab6" d="M 393.5,566.5 C 393.163,570.836 391.496,574.503 388.5,577.5C 389.302,574.426 390.302,571.426 391.5,568.5C 392.167,567.833 392.833,567.167 393.5,566.5 Z"/></g>
<g><path style="opacity:1" fill="#eb342f" d="M 751.5,565.5 C 753.415,565.216 755.081,565.549 756.5,566.5C 755.167,566.5 753.833,566.5 752.5,566.5C 752.5,578.833 752.5,591.167 752.5,603.5C 753.833,603.5 755.167,603.5 756.5,603.5C 756.5,603.833 756.5,604.167 756.5,604.5C 754.833,604.5 753.167,604.5 751.5,604.5C 751.5,591.5 751.5,578.5 751.5,565.5 Z"/></g>
<g><path style="opacity:1" fill="#d22a1b" d="M 202.5,573.5 C 206.467,576.201 206.467,579.034 202.5,582C 196.804,582.83 191.137,582.663 185.5,581.5C 183.447,579.271 183.114,576.938 184.5,574.5C 190.441,573.587 196.441,573.254 202.5,573.5 Z"/></g>
<g><path style="opacity:1" fill="#ecbbb8" d="M 567.5,570.5 C 572.032,570.182 576.366,570.515 580.5,571.5C 576.5,571.5 572.5,571.5 568.5,571.5C 568.5,576.5 568.5,581.5 568.5,586.5C 572.833,586.5 577.167,586.5 581.5,586.5C 577.03,587.486 572.363,587.819 567.5,587.5C 567.5,581.833 567.5,576.167 567.5,570.5 Z"/></g>
<g><path style="opacity:1" fill="#f1a29c" d="M 657.5,575.5 C 657.204,577.403 656.537,579.07 655.5,580.5C 655.12,578.302 655.787,576.635 657.5,575.5 Z"/></g>
<g><path style="opacity:1" fill="#e81d16" d="M 835.5,565.5 C 839.725,564.731 842.391,566.398 843.5,570.5C 844.187,572.944 843.187,574.944 840.5,576.5C 839.502,585.475 839.168,594.475 839.5,603.5C 838.167,603.5 836.833,603.5 835.5,603.5C 835.5,590.833 835.5,578.167 835.5,565.5 Z"/></g>
<g><path style="opacity:1" fill="#ed8b85" d="M 862.5,565.5 C 862.5,574.5 862.5,583.5 862.5,592.5C 860.973,592.573 859.973,591.906 859.5,590.5C 861.155,582.383 862.155,574.05 862.5,565.5 Z"/></g>
<g><path style="opacity:1" fill="#eb1711" d="M 587.5,568.5 C 589.587,569.585 590.92,571.251 591.5,573.5C 591.67,577.645 591.003,581.645 589.5,585.5C 588.476,586.853 587.143,587.52 585.5,587.5C 585.5,586.5 585.5,585.5 585.5,584.5C 586.758,580.8 586.758,577.134 585.5,573.5C 585.611,572.883 585.944,572.383 586.5,572C 585.027,571.29 584.36,570.124 584.5,568.5C 585.5,568.5 586.5,568.5 587.5,568.5 Z"/></g>
<g><path style="opacity:1" fill="#eedddd" d="M 469.5,577.5 C 472.185,580.19 474.518,583.19 476.5,586.5C 475.504,586.586 474.671,586.252 474,585.5C 473.383,586.449 473.549,587.282 474.5,588C 473.207,588.49 471.873,588.657 470.5,588.5C 469.683,591.947 469.016,597.28 468.5,604.5C 468.173,595.318 468.507,586.318 469.5,577.5 Z"/></g>
<g><path style="opacity:1" fill="#e89997" d="M 842.5,578.5 C 841.507,587.318 841.173,596.318 841.5,605.5C 839.265,605.795 837.265,605.461 835.5,604.5C 837.167,604.5 838.833,604.5 840.5,604.5C 840.168,595.475 840.502,586.475 841.5,577.5C 842.107,577.624 842.44,577.957 842.5,578.5 Z"/></g>
<g><path style="opacity:1" fill="#e4ced3" d="M 218.5,582.5 C 240.836,582.333 263.169,582.5 285.5,583C 286.305,584.113 286.972,585.279 287.5,586.5C 286.078,586.25 285.078,585.417 284.5,584C 262.33,583.832 240.33,583.332 218.5,582.5 Z"/></g>
<g><path style="opacity:1" fill="#e83c39" d="M 469.5,568.5 C 467.858,566.919 465.858,566.253 463.5,566.5C 463.5,578.833 463.5,591.167 463.5,603.5C 464.833,603.5 466.167,603.5 467.5,603.5C 467.168,594.475 467.502,585.475 468.5,576.5C 469.107,576.624 469.44,576.957 469.5,577.5C 468.507,586.318 468.173,595.318 468.5,604.5C 466.5,604.5 464.5,604.5 462.5,604.5C 462.5,591.5 462.5,578.5 462.5,565.5C 464.527,565.338 466.527,565.505 468.5,566C 469.252,566.671 469.586,567.504 469.5,568.5 Z"/></g>
<g><path style="opacity:1" fill="#e93d31" d="M 835.5,565.5 C 835.5,578.167 835.5,590.833 835.5,603.5C 836.833,603.5 838.167,603.5 839.5,603.5C 839.168,594.475 839.502,585.475 840.5,576.5C 843.187,574.944 844.187,572.944 843.5,570.5C 849.183,576.854 854.516,583.52 859.5,590.5C 859.973,591.906 860.973,592.573 862.5,592.5C 861.791,593.404 860.791,593.737 859.5,593.5C 859.5,595.5 859.5,597.5 859.5,599.5C 853.454,592.79 847.788,585.79 842.5,578.5C 842.44,577.957 842.107,577.624 841.5,577.5C 840.502,586.475 840.168,595.475 840.5,604.5C 838.833,604.5 837.167,604.5 835.5,604.5C 834.167,591.5 834.167,578.5 835.5,565.5 Z"/></g>
<g><path style="opacity:1" fill="#ed746e" d="M 616.5,581.5 C 616.833,581.5 617.167,581.5 617.5,581.5C 623.833,581.5 630.167,581.5 636.5,581.5C 636.5,583.5 636.5,585.5 636.5,587.5C 630.167,587.5 623.833,587.5 617.5,587.5C 623.31,586.51 629.31,586.177 635.5,586.5C 635.5,585.167 635.5,583.833 635.5,582.5C 628.978,582.823 622.645,582.49 616.5,581.5 Z"/></g>
<g><path style="opacity:1" fill="#e25a56" d="M 751.5,565.5 C 753.265,564.539 755.265,564.205 757.5,564.5C 757.829,578.01 757.496,591.344 756.5,604.5C 756.5,604.167 756.5,603.833 756.5,603.5C 756.5,591.167 756.5,578.833 756.5,566.5C 755.081,565.549 753.415,565.216 751.5,565.5 Z"/></g>
<g><path style="opacity:1" fill="#e91b12" d="M 583.5,566.5 C 583.586,567.496 583.252,568.329 582.5,569C 577.316,569.174 572.316,569.674 567.5,570.5C 567.5,576.167 567.5,581.833 567.5,587.5C 571.647,588.325 575.981,588.825 580.5,589C 580.833,589.333 581.167,589.667 581.5,590C 579.934,590.608 578.6,591.442 577.5,592.5C 574.167,592.5 570.833,592.5 567.5,592.5C 567.5,596.5 567.5,600.5 567.5,604.5C 565.833,604.5 564.167,604.5 562.5,604.5C 562.5,591.833 562.5,579.167 562.5,566.5C 569.5,566.5 576.5,566.5 583.5,566.5 Z"/></g>
<g><path style="opacity:1" fill="#eb3528" d="M 591.5,573.5 C 594.739,583.757 591.072,590.09 580.5,592.5C 579.5,592.5 578.5,592.5 577.5,592.5C 578.6,591.442 579.934,590.608 581.5,590C 581.167,589.667 580.833,589.333 580.5,589C 575.981,588.825 571.647,588.325 567.5,587.5C 572.363,587.819 577.03,587.486 581.5,586.5C 582.833,585.833 584.167,585.167 585.5,584.5C 585.5,585.5 585.5,586.5 585.5,587.5C 587.143,587.52 588.476,586.853 589.5,585.5C 591.003,581.645 591.67,577.645 591.5,573.5 Z"/></g>
<g><path style="opacity:1" fill="#ea291e" d="M 679.5,565.5 C 683.695,565.681 687.195,567.347 690,570.5C 690.251,572.603 689.251,573.937 687,574.5C 676.766,567.772 668.433,569.439 662,579.5C 660.414,593.577 666.58,600.077 680.5,599C 682.762,597.953 684.929,596.787 687,595.5C 688.274,596.535 689.44,597.702 690.5,599C 681.698,606.844 672.365,607.511 662.5,601C 657.082,595.247 654.749,588.414 655.5,580.5C 656.537,579.07 657.204,577.403 657.5,575.5C 659.583,571.082 662.916,568.082 667.5,566.5C 671.466,565.838 675.466,565.505 679.5,565.5 Z"/></g>
<g><path style="opacity:1" fill="#c96b6b" d="M 291.5,590.5 C 279.167,591.167 266.833,591.833 254.5,592.5C 253.957,592.44 253.624,592.107 253.5,591.5C 266.149,590.501 278.816,590.168 291.5,590.5 Z"/></g>
<g><path style="opacity:1" fill="#ec261c" d="M 495.5,565.5 C 495.5,578.5 495.5,591.5 495.5,604.5C 493.379,604.675 491.379,604.341 489.5,603.5C 485.519,597.525 481.186,591.858 476.5,586.5C 474.518,583.19 472.185,580.19 469.5,577.5C 469.44,576.957 469.107,576.624 468.5,576.5C 467.502,585.475 467.168,594.475 467.5,603.5C 466.167,603.5 464.833,603.5 463.5,603.5C 463.5,591.167 463.5,578.833 463.5,566.5C 465.858,566.253 467.858,566.919 469.5,568.5C 476.221,576.247 482.721,584.247 489,592.5C 489.5,583.506 489.666,574.506 489.5,565.5C 491.5,565.5 493.5,565.5 495.5,565.5 Z"/></g>
<g><path style="opacity:1" fill="#eb9290" d="M 577.5,592.5 C 578.5,592.5 579.5,592.5 580.5,592.5C 576.702,593.483 572.702,593.817 568.5,593.5C 568.815,597.371 568.482,601.038 567.5,604.5C 567.5,600.5 567.5,596.5 567.5,592.5C 570.833,592.5 574.167,592.5 577.5,592.5 Z"/></g>
<g><path style="opacity:1" fill="#ea1711" d="M 756.5,566.5 C 756.5,578.833 756.5,591.167 756.5,603.5C 755.167,603.5 753.833,603.5 752.5,603.5C 752.5,591.167 752.5,578.833 752.5,566.5C 753.833,566.5 755.167,566.5 756.5,566.5 Z"/></g>
<g><path style="opacity:1" fill="#e97879" d="M 862.5,565.5 C 864.265,564.539 866.265,564.205 868.5,564.5C 868.5,578.167 868.5,591.833 868.5,605.5C 866.265,605.795 864.265,605.461 862.5,604.5C 864.167,604.5 865.833,604.5 867.5,604.5C 867.5,591.5 867.5,578.5 867.5,565.5C 865.833,565.5 864.167,565.5 862.5,565.5 Z"/></g>
<g><path style="opacity:1" fill="#e61c16" d="M 862.5,565.5 C 864.167,565.5 865.833,565.5 867.5,565.5C 867.5,578.5 867.5,591.5 867.5,604.5C 865.833,604.5 864.167,604.5 862.5,604.5C 861.075,603.078 860.075,601.411 859.5,599.5C 859.5,597.5 859.5,595.5 859.5,593.5C 860.791,593.737 861.791,593.404 862.5,592.5C 862.5,583.5 862.5,574.5 862.5,565.5 Z"/></g>
<g><path style="opacity:1" fill="#e72e21" d="M 440.5,565.5 C 441.495,578.323 441.829,591.323 441.5,604.5C 439.5,604.5 437.5,604.5 435.5,604.5C 435.5,591.5 435.5,578.5 435.5,565.5C 437.167,565.5 438.833,565.5 440.5,565.5 Z"/></g>
<g><path style="opacity:1" fill="#e71c14" d="M 616.5,570.5 C 616.5,574.167 616.5,577.833 616.5,581.5C 622.645,582.49 628.978,582.823 635.5,582.5C 635.5,583.833 635.5,585.167 635.5,586.5C 629.31,586.177 623.31,586.51 617.5,587.5C 616.515,591.634 616.182,595.968 616.5,600.5C 624.167,600.5 631.833,600.5 639.5,600.5C 639.5,601.833 639.5,603.167 639.5,604.5C 630.167,604.5 620.833,604.5 611.5,604.5C 611.5,591.833 611.5,579.167 611.5,566.5C 619.528,566.169 627.528,566.502 635.5,567.5C 629.432,568.855 623.099,569.855 616.5,570.5 Z"/></g>
<g><path style="opacity:1" fill="#c00f09" d="M 311.5,568.5 C 311.5,570.167 311.5,571.833 311.5,573.5C 312.5,573.5 313.5,573.5 314.5,573.5C 314.244,575.937 313.577,578.271 312.5,580.5C 313.376,581.251 314.376,581.751 315.5,582C 315.388,585.832 315.388,589.665 315.5,593.5C 313.991,595.18 312.657,597.014 311.5,599C 312.692,601.055 312.692,603.055 311.5,605C 313.781,606.482 313.781,608.149 311.5,610C 312.328,610.915 313.328,611.581 314.5,612C 312.963,613.11 312.297,614.61 312.5,616.5C 313.675,616.281 314.675,616.614 315.5,617.5C 314.458,623.084 314.291,629.084 315,635.5C 308.478,633.652 302.978,630.152 298.5,625C 295.079,623.525 291.746,621.859 288.5,620C 285.833,616.667 283.167,613.333 280.5,610C 278.899,609.727 277.399,609.227 276,608.5C 275.333,609.5 275.333,610.5 276,611.5C 276.654,610.304 277.154,610.304 277.5,611.5C 276.624,612.251 275.624,612.751 274.5,613C 277.62,615.848 279.62,619.348 280.5,623.5C 279.527,623.013 278.527,622.513 277.5,622C 268.855,612.864 261.188,603.03 254.5,592.5C 266.833,591.833 279.167,591.167 291.5,590.5C 291.5,590.167 291.5,589.833 291.5,589.5C 292.364,586.952 293.697,584.619 295.5,582.5C 296.869,584.124 298.536,584.624 300.5,584C 303.221,581.279 305.887,578.613 308.5,576C 307.663,574.989 307.33,573.822 307.5,572.5C 308.5,570.833 309.833,569.5 311.5,568.5 Z"/></g>
<g><path style="opacity:1" fill="#eb817d" d="M 440.5,565.5 C 438.833,565.5 437.167,565.5 435.5,565.5C 435.5,578.5 435.5,591.5 435.5,604.5C 434.504,591.344 434.171,578.01 434.5,564.5C 436.735,564.205 438.735,564.539 440.5,565.5 Z"/></g>
<g><path style="opacity:1" fill="#ea6c66" d="M 617.5,587.5 C 617.5,591.5 617.5,595.5 617.5,599.5C 625.019,599.175 632.352,599.508 639.5,600.5C 631.833,600.5 624.167,600.5 616.5,600.5C 616.182,595.968 616.515,591.634 617.5,587.5 Z"/></g>
<g><path style="opacity:1" fill="#e74034" d="M 533.5,599.5 C 528.964,600.802 524.297,600.802 519.5,599.5C 518.374,600.808 518.374,602.142 519.5,603.5C 514.53,602.236 513.53,599.57 516.5,595.5C 521.564,599.091 527.231,600.424 533.5,599.5 Z"/></g>
<g><path style="opacity:1" fill="#e72d21" d="M 790.5,565.5 C 794.898,565.294 799.232,565.627 803.5,566.5C 816.985,573.799 819.818,584.132 812,597.5C 800.928,608.117 789.928,608.117 779,597.5C 774.423,589.075 774.423,580.742 779,572.5C 780.777,570.21 782.944,568.543 785.5,567.5C 787.403,567.204 789.07,566.537 790.5,565.5 Z"/></g>
<g><path style="opacity:1" fill="#f2ccc9" d="M 782.5,579.5 C 782.598,584.266 783.264,588.933 784.5,593.5C 783.034,592.653 782.2,591.32 782,589.5C 781.192,585.973 781.359,582.64 782.5,579.5 Z"/></g>
<g><path style="opacity:1" fill="#f6f3f3" d="M 784.5,593.5 C 783.264,588.933 782.598,584.266 782.5,579.5C 786.442,570.492 793.109,567.992 802.5,572C 809.138,576.017 811.304,581.85 809,589.5C 805.748,598.044 799.581,601.211 790.5,599C 787.393,598.294 785.393,596.461 784.5,593.5 Z"/></g>
<g><path style="opacity:1" fill="#eb8d89" d="M 495.5,565.5 C 496.496,578.656 496.829,591.99 496.5,605.5C 493.612,606.01 491.279,605.344 489.5,603.5C 491.379,604.341 493.379,604.675 495.5,604.5C 495.5,591.5 495.5,578.5 495.5,565.5 Z"/></g>
<g><path style="opacity:1" fill="#f17671" d="M 519.5,603.5 C 524.13,604.229 528.797,604.563 533.5,604.5C 531.866,605.161 530.033,605.494 528,605.5C 524.85,605.64 522.017,604.973 519.5,603.5 Z"/></g>
<g><path style="opacity:1" fill="#ed3b32" d="M 379.5,574.5 C 378.782,576.137 378.616,577.803 379,579.5C 380.167,577.833 381.333,576.167 382.5,574.5C 382.833,574.667 383.167,574.833 383.5,575C 383.87,576.61 383.203,578.11 381.5,579.5C 382.362,582.146 382.195,584.813 381,587.5C 380.333,586.167 379.667,586.167 379,587.5C 376.764,593.573 373.431,598.907 369,603.5C 368.333,600.833 367.667,600.833 367,603.5C 365.807,602.022 365.307,600.688 365.5,599.5C 364.614,600.325 364.281,601.325 364.5,602.5C 362.016,603.234 360.016,604.734 358.5,607C 357.937,610.326 356.937,613.493 355.5,616.5C 354.833,616.167 354.167,615.833 353.5,615.5C 351.069,616.806 351.403,617.806 354.5,618.5C 353.754,619.736 353.421,621.07 353.5,622.5C 342.774,632.368 330.774,640.534 317.5,647C 315.934,647.765 314.601,647.598 313.5,646.5C 315.25,643.645 316.083,640.311 316,636.5C 316.671,635.748 317.504,635.414 318.5,635.5C 322.663,632.722 326.996,630.222 331.5,628C 351.951,614.055 367.951,596.222 379.5,574.5 Z"/></g>
<g><path style="opacity:1" fill="#ce1611" d="M 330.5,555.5 C 326.708,561.407 322.208,566.741 317,571.5C 316.333,592.167 316.333,612.833 317,633.5C 317.717,634.044 318.217,634.711 318.5,635.5C 317.504,635.414 316.671,635.748 316,636.5C 316.083,640.311 315.25,643.645 313.5,646.5C 301.114,640.774 290.114,633.107 280.5,623.5C 279.62,619.348 277.62,615.848 274.5,613C 275.624,612.751 276.624,612.251 277.5,611.5C 277.154,610.304 276.654,610.304 276,611.5C 275.333,610.5 275.333,609.5 276,608.5C 277.399,609.227 278.899,609.727 280.5,610C 283.167,613.333 285.833,616.667 288.5,620C 291.746,621.859 295.079,623.525 298.5,625C 302.978,630.152 308.478,633.652 315,635.5C 314.291,629.084 314.458,623.084 315.5,617.5C 314.675,616.614 313.675,616.281 312.5,616.5C 312.297,614.61 312.963,613.11 314.5,612C 313.328,611.581 312.328,610.915 311.5,610C 313.781,608.149 313.781,606.482 311.5,605C 312.692,603.055 312.692,601.055 311.5,599C 312.657,597.014 313.991,595.18 315.5,593.5C 315.388,589.665 315.388,585.832 315.5,582C 314.376,581.751 313.376,581.251 312.5,580.5C 313.577,578.271 314.244,575.937 314.5,573.5C 313.5,573.5 312.5,573.5 311.5,573.5C 311.5,571.833 311.5,570.167 311.5,568.5C 311.5,567.833 311.833,567.5 312.5,567.5C 318.819,564.514 323.486,559.848 326.5,553.5C 327.86,554.18 329.193,554.847 330.5,555.5 Z"/></g>
</svg>
